<?xml version="1.0" encoding="UTF-8" standalone="no"?>
<!DOCTYPE svg PUBLIC "-//W3C//DTD SVG 1.1//EN"
 "http://www.w3.org/Graphics/SVG/1.1/DTD/svg11.dtd">
<!-- Generated by graphviz version 2.43.0 (0)
 -->
<!-- Title: %3 Pages: 1 -->
<svg width="669pt" height="745pt"
 viewBox="0.00 0.00 669.00 745.00" xmlns="http://www.w3.org/2000/svg" xmlns:xlink="http://www.w3.org/1999/xlink">
<g id="graph0" class="graph" transform="scale(1 1) rotate(0) translate(4 741)">
<title>%3</title>
<polygon fill="white" stroke="transparent" points="-4,4 -4,-741 665,-741 665,4 -4,4"/>
<g id="clust1" class="cluster">
<title>cluster_g1</title>
<polygon fill="#fefae0" stroke="#d4a373" stroke-dasharray="5,2" points="117,-8 117,-693 661,-693 661,-8 117,-8"/>
<text text-anchor="start" x="326.5" y="-678.8" font-family="sans-serif" font-weight="bold" font-size="14.00">&lt;ROOT&gt; </text>
<text text-anchor="start" x="399.5" y="-678.8" font-family="sans-serif" font-size="14.00"> ( out/ )</text>
</g>
<g id="clust2" class="cluster">
<title>cluster_g3</title>
<polygon fill="#fefae0" stroke="#d4a373" stroke-dasharray="5,2" points="125,-343 125,-662 474.5,-662 474.5,-343 125,-343"/>
<text text-anchor="start" x="247.25" y="-647.8" font-family="sans-serif" font-weight="bold" font-size="14.00">liba </text>
<text text-anchor="start" x="281.25" y="-647.8" font-family="sans-serif" font-size="14.00"> ( ... libs/ )</text>
</g>
<g id="clust3" class="cluster">
<title>cluster_g2</title>
<polygon fill="#fefae0" stroke="#d4a373" stroke-dasharray="5,2" points="133,-351 133,-631 308,-631 308,-351 133,-351"/>
<text text-anchor="start" x="141" y="-616.8" font-family="sans-serif" font-weight="bold" font-size="14.00">objects </text>
<text text-anchor="start" x="203" y="-616.8" font-family="sans-serif" font-size="14.00"> ( ... objects/ )</text>
</g>
<g id="clust4" class="cluster">
<title>cluster_r5</title>
<polygon fill="#faedcd" stroke="#d4a373" stroke-dasharray="5,2" points="180,-525 180,-600 261,-600 261,-525 180,-525"/>
<text text-anchor="start" x="210.5" y="-585.8" font-family="sans-serif" font-weight="bold" font-size="14.00">a1</text>
</g>
<g id="clust5" class="cluster">
<title>cluster_r7</title>
<polygon fill="#faedcd" stroke="#d4a373" stroke-dasharray="5,2" points="180,-442 180,-517 261,-517 261,-442 180,-442"/>
<text text-anchor="start" x="210.5" y="-502.8" font-family="sans-serif" font-weight="bold" font-size="14.00">a2</text>
</g>
<g id="clust6" class="cluster">
<title>cluster_r2</title>
<polygon fill="#faedcd" stroke="#d4a373" stroke-dasharray="5,2" points="180,-359 180,-434 261,-434 261,-359 180,-359"/>
<text text-anchor="start" x="210.5" y="-419.8" font-family="sans-serif" font-weight="bold" font-size="14.00">a3</text>
</g>
<g id="clust7" class="cluster">
<title>cluster_r6</title>
<polygon fill="#faedcd" stroke="#d4a373" stroke-dasharray="5,2" points="378.5,-442 378.5,-517 466.5,-517 466.5,-442 378.5,-442"/>
<text text-anchor="start" x="396.5" y="-502.8" font-family="sans-serif" font-weight="bold" font-size="14.00">library</text>
</g>
<g id="clust8" class="cluster">
<title>cluster_g0</title>
<polygon fill="#fefae0" stroke="#d4a373" stroke-dasharray="5,2" points="125,-16 125,-335 475,-335 475,-16 125,-16"/>
<text text-anchor="start" x="247.5" y="-320.8" font-family="sans-serif" font-weight="bold" font-size="14.00">libb </text>
<text text-anchor="start" x="281.5" y="-320.8" font-family="sans-serif" font-size="14.00"> ( ... libs/ )</text>
</g>
<g id="clust9" class="cluster">
<title>cluster_g4</title>
<polygon fill="#fefae0" stroke="#d4a373" stroke-dasharray="5,2" points="133,-24 133,-304 308,-304 308,-24 133,-24"/>
<text text-anchor="start" x="141" y="-289.8" font-family="sans-serif" font-weight="bold" font-size="14.00">objects </text>
<text text-anchor="start" x="203" y="-289.8" font-family="sans-serif" font-size="14.00"> ( ... objects/ )</text>
</g>
<g id="clust10" class="cluster">
<title>cluster_r3</title>
<polygon fill="#faedcd" stroke="#d4a373" stroke-dasharray="5,2" points="180,-198 180,-273 261,-273 261,-198 180,-198"/>
<text text-anchor="start" x="210.5" y="-258.8" font-family="sans-serif" font-weight="bold" font-size="14.00">b1</text>
</g>
<g id="clust11" class="cluster">
<title>cluster_r4</title>
<polygon fill="#faedcd" stroke="#d4a373" stroke-dasharray="5,2" points="180,-115 180,-190 261,-190 261,-115 180,-115"/>
<text text-anchor="start" x="210.5" y="-175.8" font-family="sans-serif" font-weight="bold" font-size="14.00">b2</text>
</g>
<g id="clust12" class="cluster">
<title>cluster_r8</title>
<polygon fill="#faedcd" stroke="#d4a373" stroke-dasharray="5,2" points="180,-32 180,-107 261,-107 261,-32 180,-32"/>
<text text-anchor="start" x="210.5" y="-92.8" font-family="sans-serif" font-weight="bold" font-size="14.00">b3</text>
</g>
<g id="clust13" class="cluster">
<title>cluster_r1</title>
<polygon fill="#faedcd" stroke="#d4a373" stroke-dasharray="5,2" points="378,-156 378,-231 467,-231 467,-156 378,-156"/>
<text text-anchor="start" x="396.5" y="-216.8" font-family="sans-serif" font-weight="bold" font-size="14.00">library</text>
</g>
<g id="clust14" class="cluster">
<title>cluster_g5</title>
<polygon fill="#fefae0" stroke="#d4a373" stroke-dasharray="5,2" points="513,-434 513,-548 653,-548 653,-434 513,-434"/>
<text text-anchor="start" x="521" y="-533.8" font-family="sans-serif" font-weight="bold" font-size="14.00">tools </text>
<text text-anchor="start" x="565" y="-533.8" font-family="sans-serif" font-size="14.00"> ( ... tools/ )</text>
</g>
<g id="clust15" class="cluster">
<title>cluster_r0</title>
<polygon fill="#faedcd" stroke="#d4a373" points="540,-442 540,-517 625,-517 625,-442 540,-442"/>
<text text-anchor="start" x="562" y="-502.8" font-family="sans-serif" font-weight="bold" font-size="14.00">tool1</text>
</g>
<!-- f4 -->
<g id="node1" class="node">
<title>f4</title>
<g id="a_node1"><a xlink:href="out/libs/objects/a1.o" xlink:title="... a1.o">
<polygon fill="#ffadad" stroke="#d4a373" points="253,-569 188,-569 188,-533 253,-533 253,-569"/>
<text text-anchor="middle" x="220.5" y="-547.3" font-family="sans-serif" font-size="14.00">... a1.o</text>
</a>
</g>
</g>
<!-- f2 -->
<g id="node4" class="node">
<title>f2</title>
<g id="a_node4"><a xlink:href="out/libs/liba.a" xlink:title="... liba.a">
<polygon fill="#ffadad" stroke="#d4a373" points="458.5,-486 386.5,-486 386.5,-450 458.5,-450 458.5,-486"/>
<text text-anchor="middle" x="422.5" y="-464.3" font-family="sans-serif" font-size="14.00">... liba.a</text>
</a>
</g>
</g>
<!-- f4&#45;&gt;f2 -->
<g id="edge11" class="edge">
<title>f4&#45;&gt;f2</title>
<path fill="none" stroke="black" d="M253.02,-540.94C269.54,-535.44 290.03,-528.29 308,-521 331.16,-511.61 356.39,-499.97 377.17,-489.99"/>
<polygon fill="black" stroke="black" points="374.34,-498.28 378.5,-488.54 369.17,-493.56 374.34,-498.28"/>
</g>
<!-- f5 -->
<g id="node2" class="node">
<title>f5</title>
<g id="a_node2"><a xlink:href="out/libs/objects/a2.o" xlink:title="... a2.o">
<polygon fill="#ffadad" stroke="#d4a373" points="253,-486 188,-486 188,-450 253,-450 253,-486"/>
<text text-anchor="middle" x="220.5" y="-464.3" font-family="sans-serif" font-size="14.00">... a2.o</text>
</a>
</g>
</g>
<!-- f5&#45;&gt;f2 -->
<g id="edge12" class="edge">
<title>f5&#45;&gt;f2</title>
<path fill="none" stroke="black" d="M253.19,-468C286.31,-468 338.59,-468 376.1,-468"/>
<polygon fill="black" stroke="black" points="368.5,-471.5 378.5,-468 368.5,-464.5 368.5,-471.5"/>
</g>
<!-- f6 -->
<g id="node3" class="node">
<title>f6</title>
<g id="a_node3"><a xlink:href="out/libs/objects/a3.o" xlink:title="... a3.o">
<polygon fill="#ffadad" stroke="#d4a373" points="253,-403 188,-403 188,-367 253,-367 253,-403"/>
<text text-anchor="middle" x="220.5" y="-381.3" font-family="sans-serif" font-size="14.00">... a3.o</text>
</a>
</g>
</g>
<!-- f6&#45;&gt;f2 -->
<g id="edge13" class="edge">
<title>f6&#45;&gt;f2</title>
<path fill="none" stroke="black" d="M253.19,-398.15C286.46,-411.96 339.04,-433.78 376.58,-449.36"/>
<polygon fill="black" stroke="black" points="368.02,-448.8 378.5,-450.37 371.29,-442.61 368.02,-448.8"/>
</g>
<!-- f0 -->
<g id="node9" class="node">
<title>f0</title>
<g id="a_node9"><a xlink:href="out/tools/tool1" xlink:title="... tool1">
<polygon fill="#ffadad" stroke="#d4a373" points="617,-486 548,-486 548,-450 617,-450 617,-486"/>
<text text-anchor="middle" x="582.5" y="-464.3" font-family="sans-serif" font-size="14.00">... tool1</text>
</a>
</g>
</g>
<!-- f2&#45;&gt;f0 -->
<g id="edge2" class="edge">
<title>f2&#45;&gt;f0</title>
<path fill="none" stroke="black" d="M458.57,-468C481.87,-468 512.66,-468 537.6,-468"/>
<polygon fill="black" stroke="black" points="530,-471.5 540,-468 530,-464.5 530,-471.5"/>
</g>
<!-- f7 -->
<g id="node5" class="node">
<title>f7</title>
<g id="a_node5"><a xlink:href="out/libs/objects/b1.o" xlink:title="... b1.o">
<polygon fill="#ffadad" stroke="#d4a373" points="253,-242 188,-242 188,-206 253,-206 253,-242"/>
<text text-anchor="middle" x="220.5" y="-220.3" font-family="sans-serif" font-size="14.00">... b1.o</text>
</a>
</g>
</g>
<!-- f3 -->
<g id="node8" class="node">
<title>f3</title>
<g id="a_node8"><a xlink:href="out/libs/libb.a" xlink:title="... libb.a">
<polygon fill="#ffadad" stroke="#d4a373" points="459,-200 386,-200 386,-164 459,-164 459,-200"/>
<text text-anchor="middle" x="422.5" y="-178.3" font-family="sans-serif" font-size="14.00">... libb.a</text>
</a>
</g>
</g>
<!-- f7&#45;&gt;f3 -->
<g id="edge4" class="edge">
<title>f7&#45;&gt;f3</title>
<path fill="none" stroke="black" d="M253.19,-217.34C286.21,-210.41 338.27,-199.48 375.75,-191.61"/>
<polygon fill="black" stroke="black" points="370.65,-198.1 378,-190.47 367.49,-191.85 370.65,-198.1"/>
</g>
<!-- f8 -->
<g id="node6" class="node">
<title>f8</title>
<g id="a_node6"><a xlink:href="out/libs/objects/b2.o" xlink:title="... b2.o">
<polygon fill="#ffadad" stroke="#d4a373" points="253,-159 188,-159 188,-123 253,-123 253,-159"/>
<text text-anchor="middle" x="220.5" y="-137.3" font-family="sans-serif" font-size="14.00">... b2.o</text>
</a>
</g>
</g>
<!-- f8&#45;&gt;f3 -->
<g id="edge5" class="edge">
<title>f8&#45;&gt;f3</title>
<path fill="none" stroke="black" d="M253.19,-147.5C286.21,-154.27 338.27,-164.94 375.75,-172.62"/>
<polygon fill="black" stroke="black" points="367.47,-172.52 378,-173.7 370.51,-166.21 367.47,-172.52"/>
</g>
<!-- f9 -->
<g id="node7" class="node">
<title>f9</title>
<g id="a_node7"><a xlink:href="out/libs/objects/b3.o" xlink:title="... b3.o">
<polygon fill="#ffadad" stroke="#d4a373" points="253,-76 188,-76 188,-40 253,-40 253,-76"/>
<text text-anchor="middle" x="220.5" y="-54.3" font-family="sans-serif" font-size="14.00">... b3.o</text>
</a>
</g>
</g>
<!-- f9&#45;&gt;f3 -->
<g id="edge6" class="edge">
<title>f9&#45;&gt;f3</title>
<path fill="none" stroke="black" d="M251.17,-76.08C267.88,-86.3 289.13,-99.32 308,-111 328.86,-123.91 351.81,-138.25 371.59,-150.64"/>
<polygon fill="black" stroke="black" points="369.81,-153.66 380.14,-156 373.53,-147.72 369.81,-153.66"/>
</g>
<!-- f3&#45;&gt;f0 -->
<g id="edge3" class="edge">
<title>f3&#45;&gt;f0</title>
<path fill="none" stroke="black" d="M433.62,-200.33C460.66,-249.26 534.64,-383.18 566.54,-440.92"/>
<polygon fill="black" stroke="black" points="558.31,-436.66 567.46,-442 563.64,-432.12 558.31,-436.66"/>
</g>
<!-- f1 -->
<g id="node10" class="node">
<title>f1</title>
<g id="a_node10"><a xlink:href="src/tools/tool1.c" xlink:title="src/tools/tool1.c">
<polygon fill="#caffbf" stroke="#d4a373" points="485,-737 360,-737 360,-701 485,-701 485,-737"/>
<text text-anchor="middle" x="422.5" y="-715.3" font-family="sans-serif" font-size="14.00">src/tools/tool1.c</text>
</a>
</g>
</g>
<!-- f1&#45;&gt;f0 -->
<g id="edge1" class="edge">
<title>f1&#45;&gt;f0</title>
<path fill="none" stroke="black" d="M434.86,-700.95C457.65,-664.75 509.77,-581.95 545.32,-525.47"/>
<polygon fill="black" stroke="black" points="548.29,-527.32 550.66,-517 542.37,-523.59 548.29,-527.32"/>
</g>
<!-- f10 -->
<g id="node11" class="node">
<title>f10</title>
<g id="a_node11"><a xlink:href="src/liba/a1.c" xlink:title="src/liba/a1.c">
<polygon fill="#caffbf" stroke="#d4a373" points="100.5,-569 0.5,-569 0.5,-533 100.5,-533 100.5,-569"/>
<text text-anchor="middle" x="50.5" y="-547.3" font-family="sans-serif" font-size="14.00">src/liba/a1.c</text>
</a>
</g>
</g>
<!-- f10&#45;&gt;f4 -->
<g id="edge10" class="edge">
<title>f10&#45;&gt;f4</title>
<path fill="none" stroke="black" d="M100.54,-551C124.98,-551 154.23,-551 177.61,-551"/>
<polygon fill="black" stroke="black" points="170,-554.5 180,-551 170,-547.5 170,-554.5"/>
</g>
<!-- f11 -->
<g id="node12" class="node">
<title>f11</title>
<g id="a_node12"><a xlink:href="src/liba/a2.c" xlink:title="src/liba/a2.c">
<polygon fill="#caffbf" stroke="#d4a373" points="100.5,-486 0.5,-486 0.5,-450 100.5,-450 100.5,-486"/>
<text text-anchor="middle" x="50.5" y="-464.3" font-family="sans-serif" font-size="14.00">src/liba/a2.c</text>
</a>
</g>
</g>
<!-- f11&#45;&gt;f5 -->
<g id="edge14" class="edge">
<title>f11&#45;&gt;f5</title>
<path fill="none" stroke="black" d="M100.54,-468C124.98,-468 154.23,-468 177.61,-468"/>
<polygon fill="black" stroke="black" points="170,-471.5 180,-468 170,-464.5 170,-471.5"/>
</g>
<!-- f12 -->
<g id="node13" class="node">
<title>f12</title>
<g id="a_node13"><a xlink:href="src/liba/a3.c" xlink:title="src/liba/a3.c">
<polygon fill="#caffbf" stroke="#d4a373" points="100.5,-403 0.5,-403 0.5,-367 100.5,-367 100.5,-403"/>
<text text-anchor="middle" x="50.5" y="-381.3" font-family="sans-serif" font-size="14.00">src/liba/a3.c</text>
</a>
</g>
</g>
<!-- f12&#45;&gt;f6 -->
<g id="edge7" class="edge">
<title>f12&#45;&gt;f6</title>
<path fill="none" stroke="black" d="M100.54,-385C124.98,-385 154.23,-385 177.61,-385"/>
<polygon fill="black" stroke="black" points="170,-388.5 180,-385 170,-381.5 170,-388.5"/>
</g>
<!-- f13 -->
<g id="node14" class="node">
<title>f13</title>
<g id="a_node14"><a xlink:href="src/libb/b1.c" xlink:title="src/libb/b1.c">
<polygon fill="#caffbf" stroke="#d4a373" points="101,-242 0,-242 0,-206 101,-206 101,-242"/>
<text text-anchor="middle" x="50.5" y="-220.3" font-family="sans-serif" font-size="14.00">src/libb/b1.c</text>
</a>
</g>
</g>
<!-- f13&#45;&gt;f7 -->
<g id="edge8" class="edge">
<title>f13&#45;&gt;f7</title>
<path fill="none" stroke="black" d="M101.45,-224C125.77,-224 154.68,-224 177.81,-224"/>
<polygon fill="black" stroke="black" points="170,-227.5 180,-224 170,-220.5 170,-227.5"/>
</g>
<!-- f14 -->
<g id="node15" class="node">
<title>f14</title>
<g id="a_node15"><a xlink:href="src/libb/b2.c" xlink:title="src/libb/b2.c">
<polygon fill="#caffbf" stroke="#d4a373" points="101,-159 0,-159 0,-123 101,-123 101,-159"/>
<text text-anchor="middle" x="50.5" y="-137.3" font-family="sans-serif" font-size="14.00">src/libb/b2.c</text>
</a>
</g>
</g>
<!-- f14&#45;&gt;f8 -->
<g id="edge9" class="edge">
<title>f14&#45;&gt;f8</title>
<path fill="none" stroke="black" d="M101.45,-141C125.77,-141 154.68,-141 177.81,-141"/>
<polygon fill="black" stroke="black" points="170,-144.5 180,-141 170,-137.5 170,-144.5"/>
</g>
<!-- f15 -->
<g id="node16" class="node">
<title>f15</title>
<g id="a_node16"><a xlink:href="src/libb/b3.c" xlink:title="src/libb/b3.c">
<polygon fill="#caffbf" stroke="#d4a373" points="101,-76 0,-76 0,-40 101,-40 101,-76"/>
<text text-anchor="middle" x="50.5" y="-54.3" font-family="sans-serif" font-size="14.00">src/libb/b3.c</text>
</a>
</g>
</g>
<!-- f15&#45;&gt;f9 -->
<g id="edge15" class="edge">
<title>f15&#45;&gt;f9</title>
<path fill="none" stroke="black" d="M101.45,-58C125.77,-58 154.68,-58 177.81,-58"/>
<polygon fill="black" stroke="black" points="170,-61.5 180,-58 170,-54.5 170,-61.5"/>
</g>
</g>
</svg>
