<?xml version="1.0" encoding="UTF-8" standalone="no"?>
<!DOCTYPE svg PUBLIC "-//W3C//DTD SVG 1.1//EN"
 "http://www.w3.org/Graphics/SVG/1.1/DTD/svg11.dtd">
<!-- Generated by graphviz version 2.43.0 (0)
 -->
<!-- Title: %3 Pages: 1 -->
<svg width="1287pt" height="473pt"
 viewBox="0.00 0.00 1286.96 472.92" xmlns="http://www.w3.org/2000/svg" xmlns:xlink="http://www.w3.org/1999/xlink">
<g id="graph0" class="graph" transform="scale(1 1) rotate(0) translate(4 468.92)">
<title>%3</title>
<polygon fill="white" stroke="transparent" points="-4,4 -4,-468.92 1282.96,-468.92 1282.96,4 -4,4"/>
<!-- n139915856097824 -->
<g id="node1" class="node">
<title>n139915856097824</title>
<ellipse fill="none" stroke="black" cx="577" cy="-429.56" rx="123.07" ry="35.21"/>
<text text-anchor="start" x="553" y="-440.36" font-family="sans-serif" font-weight="bold" font-size="14.00">Group</text>
<text text-anchor="start" x="498" y="-426.36" font-family="sans-serif" font-size="14.00">basename = &lt;ROOT&gt;</text>
<text text-anchor="start" x="507.5" y="-412.36" font-family="sans-serif" font-size="14.00">path&#45;prefix = &quot;top/&quot;</text>
</g>
<!-- n139915856092544 -->
<g id="node2" class="node">
<title>n139915856092544</title>
<ellipse fill="none" stroke="black" cx="459" cy="-322.85" rx="109.7" ry="35.21"/>
<text text-anchor="start" x="435" y="-333.65" font-family="sans-serif" font-weight="bold" font-size="14.00">Group</text>
<text text-anchor="start" x="392" y="-319.65" font-family="sans-serif" font-size="14.00">basename = &quot;foot&quot;</text>
<text text-anchor="start" x="389.5" y="-305.65" font-family="sans-serif" font-size="14.00">path&#45;prefix = &quot;foo&#45;&quot;</text>
</g>
<!-- n139915856097824&#45;&#45;n139915856092544 -->
<g id="edge6" class="edge">
<title>n139915856097824&#45;&#45;n139915856092544</title>
<path fill="none" stroke="black" d="M539.99,-395.72C525.79,-383.13 509.62,-368.77 495.48,-356.22"/>
</g>
<!-- n139915856097920 -->
<g id="node8" class="node">
<title>n139915856097920</title>
<ellipse fill="none" stroke="black" cx="816" cy="-322.85" rx="103.48" ry="35.21"/>
<text text-anchor="start" x="792" y="-333.65" font-family="sans-serif" font-weight="bold" font-size="14.00">Group</text>
<text text-anchor="start" x="751" y="-319.65" font-family="sans-serif" font-size="14.00">basename = &quot;bar&quot;</text>
<text text-anchor="start" x="760" y="-305.65" font-family="sans-serif" font-size="14.00">path&#45;prefix = &quot;&quot;</text>
</g>
<!-- n139915856097824&#45;&#45;n139915856097920 -->
<g id="edge15" class="edge">
<title>n139915856097824&#45;&#45;n139915856097920</title>
<path fill="none" stroke="black" d="M642.94,-399.67C677.48,-384.54 719.55,-366.11 753.56,-351.21"/>
</g>
<!-- n139915855881136 -->
<g id="node3" class="node">
<title>n139915855881136</title>
<polygon fill="none" stroke="black" points="332.92,-216.14 279.46,-245.43 172.54,-245.43 119.08,-216.14 172.54,-186.85 279.46,-186.85 332.92,-216.14"/>
<text text-anchor="start" x="208.5" y="-219.94" font-family="sans-serif" font-weight="bold" font-size="14.00">Rule</text>
<text text-anchor="start" x="168.5" y="-205.94" font-family="sans-serif" font-size="14.00">basename = &quot;a&quot;</text>
</g>
<!-- n139915856092544&#45;&#45;n139915855881136 -->
<g id="edge3" class="edge">
<title>n139915856092544&#45;&#45;n139915855881136</title>
<path fill="none" stroke="black" d="M396.56,-293.79C361.51,-278.04 318.08,-258.52 283.81,-243.12"/>
</g>
<!-- n139915855884160 -->
<g id="node6" class="node">
<title>n139915855884160</title>
<polygon fill="none" stroke="black" points="566.56,-216.14 512.78,-245.43 405.22,-245.43 351.44,-216.14 405.22,-186.85 512.78,-186.85 566.56,-216.14"/>
<text text-anchor="start" x="441.5" y="-219.94" font-family="sans-serif" font-weight="bold" font-size="14.00">Rule</text>
<text text-anchor="start" x="401" y="-205.94" font-family="sans-serif" font-size="14.00">basename = &quot;b&quot;</text>
</g>
<!-- n139915856092544&#45;&#45;n139915855884160 -->
<g id="edge5" class="edge">
<title>n139915856092544&#45;&#45;n139915855884160</title>
<path fill="none" stroke="black" d="M459,-287.28C459,-273.81 459,-258.57 459,-245.74"/>
</g>
<!-- n139915856378416 -->
<g id="node4" class="node">
<title>n139915856378416</title>
<polygon fill="none" stroke="black" points="158,-140.39 0,-140.39 0,-90.39 158,-90.39 158,-140.39"/>
<text text-anchor="start" x="64.5" y="-126.19" font-family="sans-serif" font-weight="bold" font-size="14.00">File</text>
<text text-anchor="start" x="18.5" y="-112.19" font-family="sans-serif" font-size="14.00">basename = &quot;f1&quot;</text>
<text text-anchor="start" x="8" y="-98.19" font-family="sans-serif" font-size="14.00">path&#45;base = &quot;f1.txt&quot;</text>
</g>
<!-- n139915855881136&#45;&#45;n139915856378416 -->
<g id="edge1" class="edge">
<title>n139915855881136&#45;&#45;n139915856378416</title>
<path fill="none" stroke="black" d="M183.88,-186.85C162.16,-172.26 135.94,-154.64 115.15,-140.68"/>
</g>
<!-- n139915856378512 -->
<g id="node5" class="node">
<title>n139915856378512</title>
<polygon fill="none" stroke="black" points="334,-140.39 176,-140.39 176,-90.39 334,-90.39 334,-140.39"/>
<text text-anchor="start" x="240.5" y="-126.19" font-family="sans-serif" font-weight="bold" font-size="14.00">File</text>
<text text-anchor="start" x="194.5" y="-112.19" font-family="sans-serif" font-size="14.00">basename = &quot;f2&quot;</text>
<text text-anchor="start" x="184" y="-98.19" font-family="sans-serif" font-size="14.00">path&#45;base = &quot;f2.txt&quot;</text>
</g>
<!-- n139915855881136&#45;&#45;n139915856378512 -->
<g id="edge2" class="edge">
<title>n139915855881136&#45;&#45;n139915856378512</title>
<path fill="none" stroke="black" d="M234.31,-186.85C238.59,-172.26 243.77,-154.64 247.87,-140.68"/>
</g>
<!-- n139915855880800 -->
<g id="node7" class="node">
<title>n139915855880800</title>
<polygon fill="none" stroke="black" points="538,-140.39 380,-140.39 380,-90.39 538,-90.39 538,-140.39"/>
<text text-anchor="start" x="444.5" y="-126.19" font-family="sans-serif" font-weight="bold" font-size="14.00">File</text>
<text text-anchor="start" x="398.5" y="-112.19" font-family="sans-serif" font-size="14.00">basename = &quot;f3&quot;</text>
<text text-anchor="start" x="388" y="-98.19" font-family="sans-serif" font-size="14.00">path&#45;base = &quot;f3.txt&quot;</text>
</g>
<!-- n139915855884160&#45;&#45;n139915855880800 -->
<g id="edge4" class="edge">
<title>n139915855884160&#45;&#45;n139915855880800</title>
<path fill="none" stroke="black" d="M459,-186.85C459,-172.26 459,-154.64 459,-140.68"/>
</g>
<!-- n139915856101136 -->
<g id="node9" class="node">
<title>n139915856101136</title>
<ellipse fill="none" stroke="black" cx="696" cy="-216.14" rx="111.03" ry="35.21"/>
<text text-anchor="start" x="672" y="-226.94" font-family="sans-serif" font-weight="bold" font-size="14.00">Group</text>
<text text-anchor="start" x="625.5" y="-212.94" font-family="sans-serif" font-size="14.00">basename = &quot;baz1&quot;</text>
<text text-anchor="start" x="625.5" y="-198.94" font-family="sans-serif" font-size="14.00">path&#45;prefix = &quot;baz/&quot;</text>
</g>
<!-- n139915856097920&#45;&#45;n139915856101136 -->
<g id="edge9" class="edge">
<title>n139915856097920&#45;&#45;n139915856101136</title>
<path fill="none" stroke="black" d="M779.02,-289.58C764.42,-276.84 747.68,-262.23 733.07,-249.49"/>
</g>
<!-- n139915856093792 -->
<g id="node12" class="node">
<title>n139915856093792</title>
<ellipse fill="none" stroke="black" cx="936" cy="-216.14" rx="111.03" ry="35.21"/>
<text text-anchor="start" x="912" y="-226.94" font-family="sans-serif" font-weight="bold" font-size="14.00">Group</text>
<text text-anchor="start" x="865.5" y="-212.94" font-family="sans-serif" font-size="14.00">basename = &quot;baz2&quot;</text>
<text text-anchor="start" x="865.5" y="-198.94" font-family="sans-serif" font-size="14.00">path&#45;prefix = &quot;baz/&quot;</text>
</g>
<!-- n139915856097920&#45;&#45;n139915856093792 -->
<g id="edge12" class="edge">
<title>n139915856097920&#45;&#45;n139915856093792</title>
<path fill="none" stroke="black" d="M852.98,-289.58C867.58,-276.84 884.32,-262.23 898.93,-249.49"/>
</g>
<!-- n139915856098016 -->
<g id="node15" class="node">
<title>n139915856098016</title>
<polygon fill="none" stroke="black" points="1278.92,-216.14 1225.46,-245.43 1118.54,-245.43 1065.08,-216.14 1118.54,-186.85 1225.46,-186.85 1278.92,-216.14"/>
<text text-anchor="start" x="1154.5" y="-219.94" font-family="sans-serif" font-weight="bold" font-size="14.00">Rule</text>
<text text-anchor="start" x="1114.5" y="-205.94" font-family="sans-serif" font-size="14.00">basename = &quot;c&quot;</text>
</g>
<!-- n139915856097920&#45;&#45;n139915856098016 -->
<g id="edge14" class="edge">
<title>n139915856097920&#45;&#45;n139915856098016</title>
<path fill="none" stroke="black" d="M893.3,-299.25C940.34,-285.48 1001.65,-267.51 1056,-251.5 1071.41,-246.96 1087.97,-242.06 1103.62,-237.43"/>
</g>
<!-- n139915856100512 -->
<g id="node10" class="node">
<title>n139915856100512</title>
<polygon fill="none" stroke="black" points="802.92,-115.39 749.46,-144.68 642.54,-144.68 589.08,-115.39 642.54,-86.11 749.46,-86.11 802.92,-115.39"/>
<text text-anchor="start" x="678.5" y="-119.19" font-family="sans-serif" font-weight="bold" font-size="14.00">Rule</text>
<text text-anchor="start" x="638.5" y="-105.19" font-family="sans-serif" font-size="14.00">basename = &quot;c&quot;</text>
</g>
<!-- n139915856101136&#45;&#45;n139915856100512 -->
<g id="edge8" class="edge">
<title>n139915856101136&#45;&#45;n139915856100512</title>
<path fill="none" stroke="black" d="M696,-180.61C696,-168.93 696,-156.02 696,-144.87"/>
</g>
<!-- n139915856094176 -->
<g id="node11" class="node">
<title>n139915856094176</title>
<polygon fill="none" stroke="black" points="761.5,-50 630.5,-50 630.5,0 761.5,0 761.5,-50"/>
<text text-anchor="start" x="681.5" y="-35.8" font-family="sans-serif" font-weight="bold" font-size="14.00">File</text>
<text text-anchor="start" x="638.5" y="-21.8" font-family="sans-serif" font-size="14.00">basename = &quot;x&quot;</text>
<text text-anchor="start" x="639.5" y="-7.8" font-family="sans-serif" font-size="14.00">path&#45;base = &quot;y&quot;</text>
</g>
<!-- n139915856100512&#45;&#45;n139915856094176 -->
<g id="edge7" class="edge">
<title>n139915856100512&#45;&#45;n139915856094176</title>
<path fill="none" stroke="black" d="M696,-85.94C696,-74.43 696,-61.29 696,-50.25"/>
</g>
<!-- n139915856095952 -->
<g id="node13" class="node">
<title>n139915856095952</title>
<polygon fill="none" stroke="black" points="1042.92,-115.39 989.46,-144.68 882.54,-144.68 829.08,-115.39 882.54,-86.11 989.46,-86.11 1042.92,-115.39"/>
<text text-anchor="start" x="918.5" y="-119.19" font-family="sans-serif" font-weight="bold" font-size="14.00">Rule</text>
<text text-anchor="start" x="878.5" y="-105.19" font-family="sans-serif" font-size="14.00">basename = &quot;c&quot;</text>
</g>
<!-- n139915856093792&#45;&#45;n139915856095952 -->
<g id="edge11" class="edge">
<title>n139915856093792&#45;&#45;n139915856095952</title>
<path fill="none" stroke="black" d="M936,-180.61C936,-168.93 936,-156.02 936,-144.87"/>
</g>
<!-- n139915856096720 -->
<g id="node14" class="node">
<title>n139915856096720</title>
<polygon fill="none" stroke="black" points="1002,-50 870,-50 870,0 1002,0 1002,-50"/>
<text text-anchor="start" x="921.5" y="-35.8" font-family="sans-serif" font-weight="bold" font-size="14.00">File</text>
<text text-anchor="start" x="878" y="-21.8" font-family="sans-serif" font-size="14.00">basename = &quot;p&quot;</text>
<text text-anchor="start" x="879" y="-7.8" font-family="sans-serif" font-size="14.00">path&#45;base = &quot;q&quot;</text>
</g>
<!-- n139915856095952&#45;&#45;n139915856096720 -->
<g id="edge10" class="edge">
<title>n139915856095952&#45;&#45;n139915856096720</title>
<path fill="none" stroke="black" d="M936,-85.94C936,-74.43 936,-61.29 936,-50.25"/>
</g>
<!-- n139915856095712 -->
<g id="node16" class="node">
<title>n139915856095712</title>
<polygon fill="none" stroke="black" points="1238,-140.39 1106,-140.39 1106,-90.39 1238,-90.39 1238,-140.39"/>
<text text-anchor="start" x="1157.5" y="-126.19" font-family="sans-serif" font-weight="bold" font-size="14.00">File</text>
<text text-anchor="start" x="1114" y="-112.19" font-family="sans-serif" font-size="14.00">basename = &quot;p&quot;</text>
<text text-anchor="start" x="1115" y="-98.19" font-family="sans-serif" font-size="14.00">path&#45;base = &quot;q&quot;</text>
</g>
<!-- n139915856098016&#45;&#45;n139915856095712 -->
<g id="edge13" class="edge">
<title>n139915856098016&#45;&#45;n139915856095712</title>
<path fill="none" stroke="black" d="M1172,-186.85C1172,-172.26 1172,-154.64 1172,-140.68"/>
</g>
</g>
</svg>
